<?xml version="1.0" standalone="no"?>
<!DOCTYPE svg PUBLIC "-//W3C//DTD SVG 20010904//EN"
 "http://www.w3.org/TR/2001/REC-SVG-20010904/DTD/svg10.dtd">
<svg version="1.0" xmlns="http://www.w3.org/2000/svg"
 width="500.000000pt" height="500.000000pt" viewBox="0 0 500.000000 500.000000"
 preserveAspectRatio="xMidYMid meet">
<metadata>
Created by potrace 1.14, written by Peter Selinger 2001-2017
</metadata>
<g transform="translate(0.000000,500.000000) scale(0.100000,-0.100000)"
fill="#000000" stroke="none">
<path d="M2320 4984 c-19 -2 -78 -9 -130 -15 -495 -56 -1004 -290 -1380 -634
-435 -398 -709 -925 -791 -1525 -17 -123 -17 -487 0 -610 48 -348 158 -668
328 -956 393 -662 1057 -1097 1843 -1205 123 -17 487 -17 610 0 608 84 1145
362 1543 800 342 375 557 840 628 1361 17 123 17 487 0 610 -48 348 -158 668
-328 956 -387 652 -1042 1087 -1808 1200 -97 14 -444 26 -515 18z m1609 -804
c13 -11 21 -26 18 -32 -3 -7 -66 -86 -140 -174 l-135 -161 -74 -7 c-40 -3
-181 -13 -313 -21 -132 -8 -268 -18 -303 -21 l-62 -6 -372 -520 c-204 -286
-379 -523 -387 -526 -9 -3 -178 -49 -376 -102 l-360 -96 -127 -203 c-70 -112
-129 -205 -131 -208 -7 -6 -67 26 -67 35 0 5 62 107 138 228 l137 219 375 100
375 100 370 517 c204 285 375 522 380 527 6 6 178 21 383 35 345 24 375 27
390 46 9 11 67 80 127 154 61 74 115 135 120 135 6 0 21 -9 34 -19z m-29
-1580 l0 -950 -250 0 -250 0 0 950 0 950 250 0 250 0 0 -950z m-750 -250 l0
-700 -250 0 -250 0 0 700 0 700 250 0 250 0 0 -700z m-750 -375 l0 -325 -250
0 -250 0 0 325 0 325 250 0 250 0 0 -325z m-750 -250 l0 -75 -247 2 -248 3 -3
73 -3 72 251 0 250 0 0 -75z m-74 -364 c50 -22 90 -63 115 -116 29 -61 26 -65
-40 -65 -55 0 -61 2 -77 29 -45 76 -177 90 -245 25 -45 -43 -62 -100 -58 -192
3 -66 9 -85 32 -121 31 -46 91 -80 141 -81 45 0 113 37 136 74 35 58 29 66
-50 66 l-70 0 0 55 0 55 125 0 125 0 0 -170 0 -170 -39 0 c-38 0 -40 2 -46 38
l-6 38 -37 -37 c-89 -88 -243 -77 -347 24 -68 68 -95 136 -95 247 0 167 83
283 227 320 52 13 159 3 209 -19z m694 -36 l0 -55 -155 0 -155 0 0 -70 0 -69
138 -3 137 -3 3 -52 3 -53 -140 0 -141 0 0 -135 0 -135 -65 0 -65 0 0 315 0
315 220 0 220 0 0 -55z m243 34 c43 -12 63 -38 73 -95 8 -53 -10 -107 -43
-134 -20 -16 -41 -20 -94 -20 l-69 0 0 130 0 130 48 0 c26 0 64 -5 85 -11z
m358 -21 c1 -7 1 -17 0 -21 -1 -4 6 -10 14 -13 19 -8 20 -40 2 -47 -17 -6 -15
-109 2 -115 6 -2 11 -12 11 -23 0 -13 -7 -19 -24 -19 -36 0 -48 23 -49 95 -1
46 -5 65 -14 65 -7 0 -13 9 -13 20 0 11 7 20 15 20 9 0 15 6 14 13 -3 27 2 37
21 37 11 0 21 -6 21 -12z m-116 -52 c14 -10 20 -31 24 -95 l6 -81 -40 1 c-22
0 -52 -2 -67 -6 -30 -8 -68 22 -68 55 0 29 35 60 69 60 29 0 57 21 44 33 -10
11 -53 8 -53 -3 0 -5 -11 -10 -25 -10 -29 0 -32 16 -8 42 20 22 90 25 118 4z
m311 0 c15 -12 20 -30 24 -95 l5 -81 -40 1 c-22 0 -51 -2 -65 -6 -29 -7 -55
10 -65 42 -8 28 33 73 67 73 30 0 52 15 44 29 -9 14 -56 15 -56 1 0 -5 -11
-10 -25 -10 -30 0 -32 13 -5 40 24 24 87 27 116 6z m-517 -396 c22 -66 41
-125 41 -130 0 -6 -11 -10 -25 -10 -18 0 -26 7 -31 25 -6 22 -11 25 -55 25
-44 0 -51 -3 -59 -25 -7 -18 -17 -25 -35 -25 -14 0 -25 1 -25 3 0 2 20 59 45
127 25 68 45 125 45 127 0 2 13 3 29 3 28 0 30 -4 70 -120z m531 -10 l0 -130
-25 0 -25 0 0 123 c0 68 3 127 7 130 3 4 15 7 25 7 17 0 18 -11 18 -130z m410
105 c0 -20 -5 -25 -25 -25 -20 0 -25 5 -25 25 0 20 5 25 25 25 20 0 25 -5 25
-25z m-110 -19 c0 -13 7 -26 15 -30 8 -3 15 -12 15 -21 0 -8 -7 -15 -15 -15
-12 0 -15 -13 -15 -60 0 -47 3 -60 15 -60 20 0 19 -29 -1 -37 -8 -3 -26 -1
-40 5 -22 11 -24 17 -24 82 0 40 -4 70 -10 70 -5 0 -10 9 -10 20 0 11 5 20 10
20 6 0 10 11 10 25 0 20 5 25 25 25 20 0 25 -5 25 -24z m-710 -36 c0 -7 6 -7
19 0 29 15 67 12 85 -6 12 -11 16 -36 16 -95 0 -77 -1 -79 -25 -79 -23 0 -24
3 -27 73 -3 66 -5 72 -25 75 -29 4 -43 -29 -43 -99 0 -46 -2 -49 -25 -49 -25
0 -25 0 -25 95 0 95 0 95 25 95 14 0 25 -5 25 -10z m303 -7 c10 -12 16 -43 19
-96 l3 -78 -40 2 c-22 0 -52 -2 -66 -6 -35 -9 -61 17 -57 58 3 33 27 51 81 62
34 7 36 35 3 35 -14 0 -28 -4 -31 -10 -3 -5 -17 -10 -31 -10 -29 0 -31 13 -4
40 26 26 100 28 123 3z m213 -49 c19 -71 24 -69 45 14 11 44 16 52 36 52 13 0
23 -3 23 -7 0 -26 -76 -229 -91 -244 -26 -26 -59 -25 -59 1 0 11 7 20 15 20
29 0 27 29 -9 130 l-36 100 29 0 c27 0 30 -4 47 -66z m304 -29 c0 -95 0 -95
-25 -95 -25 0 -25 0 -25 95 0 95 0 95 25 95 25 0 25 0 25 -95z m185 70 c14
-13 25 -29 25 -35 0 -16 -50 -12 -56 5 -10 25 -53 19 -60 -9 -9 -37 -1 -78 19
-90 15 -9 22 -7 37 12 30 37 67 27 48 -13 -13 -29 -59 -49 -93 -41 -43 11 -65
44 -65 98 0 62 31 98 85 98 25 0 44 -8 60 -25z m195 5 c27 -27 25 -40 -4 -40
-14 0 -28 5 -31 10 -9 14 -58 13 -53 -1 2 -7 23 -19 47 -28 52 -19 66 -38 57
-75 -8 -32 -47 -50 -95 -42 -35 5 -80 40 -69 51 12 13 43 11 57 -2 7 -8 23
-13 34 -11 39 6 28 25 -25 44 -45 16 -53 23 -56 47 -5 43 22 67 75 67 30 0 49
-6 63 -20z"/>
<path d="M2430 1235 c0 -82 1 -85 23 -85 62 1 96 55 76 123 -11 37 -24 47 -66
47 l-33 0 0 -85z"/>
<path d="M2703 1193 c-32 -6 -51 -32 -32 -44 19 -12 25 -11 43 7 13 12 24 48
14 43 -2 -1 -13 -4 -25 -6z"/>
<path d="M3015 1192 c-33 -7 -47 -22 -34 -38 15 -18 33 -18 49 1 17 20 9 41
-15 37z"/>
<path d="M2462 901 c-16 -52 -16 -51 17 -51 l30 0 -16 45 c-8 25 -16 45 -17
45 -2 0 -8 -17 -14 -39z"/>
<path d="M2910 830 c-29 -7 -39 -37 -15 -46 20 -8 48 18 43 38 -2 10 -11 12
-28 8z"/>
</g>
</svg>
